<?xml version="1.0" encoding="UTF-8" standalone="no"?>
<!-- Created with Inkscape (http://www.inkscape.org/) -->

<svg
   xmlns:dc="http://purl.org/dc/elements/1.1/"
   xmlns:cc="http://creativecommons.org/ns#"
   xmlns:rdf="http://www.w3.org/1999/02/22-rdf-syntax-ns#"
   xmlns:svg="http://www.w3.org/2000/svg"
   xmlns="http://www.w3.org/2000/svg"
   xmlns:sodipodi="http://sodipodi.sourceforge.net/DTD/sodipodi-0.dtd"
   xmlns:inkscape="http://www.inkscape.org/namespaces/inkscape"
   width="210mm"
   height="297mm"
   viewBox="0 0 210 297"
   version="1.1"
   id="svg8"
   inkscape:version="0.92.2 5c3e80d, 2017-08-06"
   sodipodi:docname="clusters_categories.svg">
  <defs
     id="defs2" />
  <sodipodi:namedview
     id="base"
     pagecolor="#ffffff"
     bordercolor="#666666"
     borderopacity="1.0"
     inkscape:pageopacity="0.0"
     inkscape:pageshadow="2"
     inkscape:zoom="0.35"
     inkscape:cx="-168.57143"
     inkscape:cy="548.57143"
     inkscape:document-units="mm"
     inkscape:current-layer="layer1"
     showgrid="false"
     showborder="false"
     inkscape:showpageshadow="false"
     inkscape:window-width="1920"
     inkscape:window-height="1043"
     inkscape:window-x="0"
     inkscape:window-y="0"
     inkscape:window-maximized="1" />
  <metadata
     id="metadata5">
    <rdf:RDF>
      <cc:Work
         rdf:about="">
        <dc:format>image/svg+xml</dc:format>
        <dc:type
           rdf:resource="http://purl.org/dc/dcmitype/StillImage" />
        <dc:title></dc:title>
      </cc:Work>
    </rdf:RDF>
  </metadata>
  <g
     inkscape:label="Layer 1"
     inkscape:groupmode="layer"
     id="layer1">
    <ellipse
       style="fill:#000000;stroke:#000000;stroke-width:1.00000003;stroke-miterlimit:4;stroke-dasharray:none;stroke-dashoffset:0;stroke-opacity:1"
       id="path815"
       cx="-365.35178"
       cy="-55.878571"
       rx="38.55357"
       ry="37.419643" />
    <ellipse
       style="fill:#aca793;stroke:#000000;stroke-width:1.00000003;stroke-miterlimit:4;stroke-dasharray:none;stroke-dashoffset:0;stroke-opacity:1"
       id="path815-3"
       cx="-264.58334"
       cy="-54.51786"
       rx="38.55357"
       ry="37.419643" />
    <ellipse
       style="fill:#000000;stroke:#000000;stroke-width:1;stroke-miterlimit:4;stroke-dasharray:none;stroke-dashoffset:0;stroke-opacity:1"
       id="path815-6"
       cx="-132.29166"
       cy="-53.005951"
       rx="38.55357"
       ry="37.419643" />
    <ellipse
       style="fill:#c8c4b7;stroke:#000000;stroke-width:1;stroke-miterlimit:4;stroke-dasharray:none;stroke-dashoffset:0;stroke-opacity:1"
       id="path815-6-7"
       cx="-54.428581"
       cy="-53.005951"
       rx="38.55357"
       ry="37.419643" />
    <path
       style="fill:#000000;stroke:#000000;stroke-width:1;stroke-miterlimit:4;stroke-dasharray:none;stroke-dashoffset:0;stroke-opacity:1"
       d="m 92.982364,-96.094982 a 46.113099,45.735118 0 0 0 -46.112948,45.734676 46.113099,45.735118 0 0 0 46.112948,45.7351915 46.113099,45.735118 0 0 0 0.08216,-0.00413 V -20.514584 A 30.616072,29.860115 0 0 1 62.744416,-50.360306 30.616072,29.860115 0 0 1 93.064528,-80.209648 v -15.882233 a 46.113099,45.735118 0 0 0 -0.08216,-0.0031 z"
       id="path857"
       inkscape:connector-curvature="0" />
    <ellipse
       style="fill:#aca793;stroke:#000000;stroke-width:1;stroke-miterlimit:4;stroke-dasharray:none;stroke-dashoffset:0;stroke-opacity:1"
       id="path873"
       cx="95.25"
       cy="-49.604168"
       rx="18.898809"
       ry="17.764881" />
    <ellipse
       style="fill:#aca793;stroke:#000000;stroke-width:1;stroke-miterlimit:4;stroke-dasharray:none;stroke-dashoffset:0;stroke-opacity:1"
       id="path873-5"
       cx="157.99405"
       cy="-49.226192"
       rx="18.898809"
       ry="17.764881" />
    <path
       style="fill:none;stroke:#000000;stroke-width:0.86500001;stroke-linecap:butt;stroke-linejoin:miter;stroke-miterlimit:4;stroke-dasharray:0.865, 0.865;stroke-dashoffset:0;stroke-opacity:1"
       d="m 114.90476,-49.226191 h 23.43453"
       id="path890"
       inkscape:connector-curvature="0" />
    <path
       inkscape:connector-curvature="0"
       style="fill:#000000;stroke:#000000;stroke-width:1;stroke-miterlimit:4;stroke-dasharray:none;stroke-dashoffset:0;stroke-opacity:1"
       d="m -238.88092,69.080542 a 46.113099,45.735118 0 0 0 -46.11295,45.734678 46.113099,45.735118 0 0 0 46.11295,45.73519 46.113099,45.735118 0 0 0 0.0822,-0.004 v -15.88537 a 30.616073,29.860116 0 0 1 -30.32015,-29.84572 30.616073,29.860116 0 0 1 30.32011,-29.849345 V 69.083642 a 46.113099,45.735118 0 0 0 -0.0822,-0.0031 z"
       id="path857-3" />
    <ellipse
       style="fill:#aca793;stroke:#000000;stroke-width:1;stroke-miterlimit:4;stroke-dasharray:none;stroke-dashoffset:0;stroke-opacity:1"
       id="path873-56"
       cx="-236.61328"
       cy="115.57136"
       rx="18.898809"
       ry="17.764881" />
    <ellipse
       style="fill:#f2f2f2;stroke:#000000;stroke-width:1;stroke-miterlimit:4;stroke-dasharray:none;stroke-dashoffset:0;stroke-opacity:1"
       id="path873-5-2"
       cx="-173.86922"
       cy="115.94933"
       rx="18.898809"
       ry="17.764881" />
    <path
       style="fill:#24221c;stroke:#000000;stroke-width:1;stroke-miterlimit:4;stroke-dasharray:none;stroke-dashoffset:0;stroke-opacity:1"
       d="m -14.741072,72.482324 a 47.247024,43.845233 0 0 0 -47.247245,43.844866 47.247024,43.845233 0 0 0 47.247245,43.84539 47.247024,43.845233 0 0 0 47.247246,-43.84539 47.247024,43.845233 0 0 0 -47.247246,-43.844866 z m 0.377754,20.949107 A 24.785728,23.6518 0 0 1 10.422766,117.08322 24.785728,23.6518 0 0 1 -14.363318,140.735 24.785728,23.6518 0 0 1 -39.148884,117.08322 24.785728,23.6518 0 0 1 -14.363318,93.431431 Z"
       id="path916"
       inkscape:connector-curvature="0" />
    <path
       inkscape:connector-curvature="0"
       style="fill:#ac9d93;stroke:#000000;stroke-width:1;stroke-miterlimit:4;stroke-dasharray:none;stroke-dashoffset:0;stroke-opacity:1;opacity:0.518"
       d="m 26.458332,73.994159 a 47.247024,43.845234 0 0 0 -47.247245,43.844861 47.247024,43.845234 0 0 0 47.247245,43.84539 47.247024,43.845234 0 0 0 47.24725,-43.84539 47.247024,43.845234 0 0 0 -47.24725,-43.844861 z m 0.377754,20.949107 A 24.785729,23.6518 0 0 1 51.622171,118.59505 24.785729,23.6518 0 0 1 26.836086,142.24683 24.785729,23.6518 0 0 1 2.0505199,118.59505 24.785729,23.6518 0 0 1 26.836086,94.943266 Z"
       id="path916-2" />
    <text
       xml:space="preserve"
       style="font-style:normal;font-weight:normal;font-size:10.58333302px;line-height:1.25;font-family:sans-serif;letter-spacing:0px;word-spacing:0px;fill:#000000;fill-opacity:1;stroke:none;stroke-width:0.26458332"
       x="-387.80359"
       y="23.042854"
       id="text951"><tspan
         sodipodi:role="line"
         id="tspan949"
         x="-387.80359"
         y="23.042854"
         style="stroke-width:0.26458332">(a) Clusters bem separados</tspan></text>
    <text
       xml:space="preserve"
       style="font-style:normal;font-weight:normal;font-size:10.58333302px;line-height:1.25;font-family:sans-serif;letter-spacing:0px;word-spacing:0px;fill:#000000;fill-opacity:1;stroke:none;stroke-width:0.26458332"
       x="-182.71367"
       y="23.798809"
       id="text955"><tspan
         sodipodi:role="line"
         id="tspan953"
         x="-182.71367"
         y="23.798809"
         style="stroke-width:0.26458332">(b) Clusters baseados em centro</tspan></text>
    <text
       xml:space="preserve"
       style="font-style:normal;font-weight:normal;font-size:10.58333302px;line-height:1.25;font-family:sans-serif;letter-spacing:0px;word-spacing:0px;fill:#000000;fill-opacity:1;stroke:none;stroke-width:0.26458332"
       x="21.922621"
       y="24.101191"
       id="text959"><tspan
         sodipodi:role="line"
         id="tspan957"
         x="21.922621"
         y="24.101191"
         style="stroke-width:0.26458332">(c) Clusters baseados em contiguidade</tspan></text>
    <text
       xml:space="preserve"
       style="font-style:normal;font-weight:normal;font-size:10.58333302px;line-height:1.25;font-family:sans-serif;letter-spacing:0px;word-spacing:0px;fill:#000000;fill-opacity:1;stroke:none;stroke-width:0.26458332"
       x="-314.83444"
       y="195.59828"
       id="text951-7"><tspan
         sodipodi:role="line"
         id="tspan949-0"
         x="-314.83444"
         y="195.59828"
         style="stroke-width:0.26458332">(a) Clusters baseados em densidade</tspan></text>
    <text
       xml:space="preserve"
       style="font-style:normal;font-weight:normal;font-size:10.58333302px;line-height:1.25;font-family:sans-serif;letter-spacing:0px;word-spacing:0px;fill:#000000;fill-opacity:1;stroke:none;stroke-width:0.26458332"
       x="-58.944084"
       y="196.35425"
       id="text955-9"><tspan
         sodipodi:role="line"
         id="tspan953-3"
         x="-58.944084"
         y="196.35425"
         style="stroke-width:0.26458332">(b) Clusters conceituais</tspan></text>
  </g>
</svg>
